REM DIRINDEX 1\2,1\3,1\4
REM DIRNAME cjc038,folder01,folder02,folder03
TITLE ""
FILE "DISC1Track20.mp3" MP3
  TRACK 01 AUDIO
    TITLE "0:"
    INDEX 01 00:00:00
  TRACK 02 AUDIO
    TITLE "4:cjc038_0724"
    INDEX 01 00:00:03
  TRACK 03 AUDIO
    TITLE "0:"
    INDEX 01 00:02:57
  TRACK 04 AUDIO
    TITLE "2:cjc038_0725"
    INDEX 01 00:04:25
  TRACK 05 AUDIO
    TITLE "0:"
    INDEX 01 00:07:56
  TRACK 06 AUDIO
    TITLE "3:cjc038_0726"
    INDEX 01 00:07:66
  TRACK 07 AUDIO
    TITLE "0:"
    INDEX 01 00:11:05
  TRACK 08 AUDIO
    TITLE "2:cjc038_0727"
    INDEX 01 00:11:68
  TRACK 09 AUDIO
    TITLE "0:"
    INDEX 01 00:14:04
  TRACK 10 AUDIO
    TITLE "3:cjc038_0728"
    INDEX 01 00:14:13
  TRACK 11 AUDIO
    TITLE "0:"
    INDEX 01 00:16:10
  TRACK 12 AUDIO
    TITLE "2:cjc038_0729"
    INDEX 01 00:16:67
  TRACK 13 AUDIO
    TITLE "0:"
    INDEX 01 00:20:32
  TRACK 14 AUDIO
    TITLE "3:cjc038_0730"
    INDEX 01 00:20:37
  TRACK 15 AUDIO
    TITLE "0:"
    INDEX 01 00:24:00
  TRACK 16 AUDIO
    TITLE "2:cjc038_0731"
    INDEX 01 00:24:47
  TRACK 17 AUDIO
    TITLE "0:"
    INDEX 01 00:28:51
  TRACK 18 AUDIO
    TITLE "3:cjc038_0732"
    INDEX 01 00:28:57
  TRACK 19 AUDIO
    TITLE "0:"
    INDEX 01 00:32:54
  TRACK 20 AUDIO
    TITLE "2:cjc038_0733"
    INDEX 01 00:33:34
  TRACK 21 AUDIO
    TITLE "0:"
    INDEX 01 00:36:60
  TRACK 22 AUDIO
    TITLE "3:cjc038_0734"
    INDEX 01 00:36:68
  TRACK 23 AUDIO
    TITLE "0:"
    INDEX 01 00:40:03
  TRACK 24 AUDIO
    TITLE "2:cjc038_0735"
    INDEX 01 00:40:66
  TRACK 25 AUDIO
    TITLE "0:"
    INDEX 01 00:43:07
  TRACK 26 AUDIO
    TITLE "3:cjc038_0736"
    INDEX 01 00:43:19
  TRACK 27 AUDIO
    TITLE "0:"
    INDEX 01 00:45:24
  TRACK 28 AUDIO
    TITLE "2:cjc038_0737"
    INDEX 01 00:46:04
  TRACK 29 AUDIO
    TITLE "0:"
    INDEX 01 00:48:06
  TRACK 30 AUDIO
    TITLE "3:cjc038_0738"
    INDEX 01 00:48:12
  TRACK 31 AUDIO
    TITLE "0:"
    INDEX 01 00:50:11
  TRACK 32 AUDIO
    TITLE "2:cjc038_0739"
    INDEX 01 00:50:64
  TRACK 33 AUDIO
    TITLE "0:"
    INDEX 01 00:52:67
  TRACK 34 AUDIO
    TITLE "3:cjc038_0740"
    INDEX 01 00:53:02
  TRACK 35 AUDIO
    TITLE "0:"
    INDEX 01 00:54:64
  TRACK 36 AUDIO
    TITLE "2:cjc038_0741"
    INDEX 01 00:56:47
  TRACK 37 AUDIO
    TITLE "0:"
    INDEX 01 00:59:08
  TRACK 38 AUDIO
    TITLE "3:cjc038_0742"
    INDEX 01 00:59:16
  TRACK 39 AUDIO
    TITLE "0:"
    INDEX 01 01:01:38
  TRACK 40 AUDIO
    TITLE "2:cjc038_0743"
    INDEX 01 01:02:28
  TRACK 41 AUDIO
    TITLE "0:"
    INDEX 01 01:05:32
  TRACK 42 AUDIO
    TITLE "3:cjc038_0744"
    INDEX 01 01:05:40
  TRACK 43 AUDIO
    TITLE "0:"
    INDEX 01 01:08:11
  TRACK 44 AUDIO
    TITLE "2:cjc038_0745"
    INDEX 01 01:10:18
  TRACK 45 AUDIO
    TITLE "0:"
    INDEX 01 01:12:54
  TRACK 46 AUDIO
    TITLE "3:cjc038_0746"
    INDEX 01 01:12:62
  TRACK 47 AUDIO
    TITLE "0:"
    INDEX 01 01:15:07
  TRACK 48 AUDIO
    TITLE "2:cjc038_0747"
    INDEX 01 01:15:70
  TRACK 49 AUDIO
    TITLE "0:"
    INDEX 01 01:18:37
  TRACK 50 AUDIO
    TITLE "3:cjc038_0748"
    INDEX 01 01:18:47
  TRACK 51 AUDIO
    TITLE "0:"
    INDEX 01 01:20:69
  TRACK 52 AUDIO
    TITLE "2:cjc038_0749"
    INDEX 01 01:22:58
  TRACK 53 AUDIO
    TITLE "0:"
    INDEX 01 01:25:27
  TRACK 54 AUDIO
    TITLE "3:cjc038_0750"
    INDEX 01 01:25:35
  TRACK 55 AUDIO
    TITLE "0:"
    INDEX 01 01:27:71
  TRACK 56 AUDIO
    TITLE "2:cjc038_0751"
    INDEX 01 01:29:39
  TRACK 57 AUDIO
    TITLE "0:"
    INDEX 01 01:32:25
  TRACK 58 AUDIO
    TITLE "3:cjc038_0752"
    INDEX 01 01:32:33
  TRACK 59 AUDIO
    TITLE "0:"
    INDEX 01 01:35:06
  TRACK 60 AUDIO
    TITLE "2:cjc038_0753"
    INDEX 01 01:35:65
  TRACK 61 AUDIO
    TITLE "0:"
    INDEX 01 01:39:23
  TRACK 62 AUDIO
    TITLE "3:cjc038_0754"
    INDEX 01 01:39:29
  TRACK 63 AUDIO
    TITLE "0:"
    INDEX 01 01:42:45
  TRACK 64 AUDIO
    TITLE "2:cjc038_0755"
    INDEX 01 01:43:35
  TRACK 65 AUDIO
    TITLE "0:"
    INDEX 01 01:46:49
  TRACK 66 AUDIO
    TITLE "3:cjc038_0756"
    INDEX 01 01:46:55
  TRACK 67 AUDIO
    TITLE "0:"
    INDEX 01 01:49:53
  TRACK 68 AUDIO
    TITLE "2:cjc038_0757"
    INDEX 01 01:50:39
  TRACK 69 AUDIO
    TITLE "0:"
    INDEX 01 01:54:62
  TRACK 70 AUDIO
    TITLE "3:cjc038_0758"
    INDEX 01 01:54:68
  TRACK 71 AUDIO
    TITLE "0:"
    INDEX 01 01:59:03
